<svg width="13" height="12" viewBox="0 0 13 12" fill="none" xmlns="http://www.w3.org/2000/svg">
<path d="M8.5625 3C8.5625 4.10457 7.63912 5 6.5 5C5.36088 5 4.4375 4.10457 4.4375 3C4.4375 1.89543 5.36088 1 6.5 1C7.63912 1 8.5625 1.89543 8.5625 3Z" stroke="black" stroke-width="2" stroke-linecap="round" stroke-linejoin="round"/>
<path d="M5.125 9C5.125 10.1046 4.20158 11 3.0625 11C1.92342 11 1 10.1046 1 9C1 7.8954 1.92342 7 3.0625 7C4.20158 7 5.125 7.8954 5.125 9Z" stroke="black" stroke-width="2" stroke-linecap="round" stroke-linejoin="round"/>
<path d="M12 9C12 10.1046 11.0766 11 9.9375 11C8.79838 11 7.875 10.1046 7.875 9C7.875 7.8954 8.79838 7 9.9375 7C11.0766 7 12 7.8954 12 9Z" stroke="black" stroke-width="2" stroke-linecap="round" stroke-linejoin="round"/>
</svg>
