<svg width="21" height="21" viewBox="0 0 21 21" fill="none" xmlns="http://www.w3.org/2000/svg">
<path d="M10.5 19.5C15.6086 19.5 19.75 15.3586 19.75 10.25C19.75 5.14137 15.6086 1 10.5 1C5.39137 1 1.25 5.14137 1.25 10.25C1.25 15.3586 5.39137 19.5 10.5 19.5Z" stroke="white" stroke-width="1.5" stroke-linecap="round" stroke-linejoin="round"/>
<path d="M11.4309 6.15005C11.4256 6.39231 11.325 6.62272 11.1509 6.79123C10.9767 6.95974 10.7431 7.05271 10.5008 7.05002C10.3242 7.04413 10.1533 6.98641 10.0093 6.884C9.8652 6.7816 9.7546 6.63903 9.6911 6.47415C9.6275 6.30927 9.6139 6.12932 9.652 5.95675C9.69 5.78419 9.778 5.6267 9.905 5.50381C10.032 5.38093 10.1923 5.29814 10.366 5.26578C10.5397 5.23341 10.7192 5.25289 10.8819 5.32181C11.0446 5.39072 11.1834 5.506 11.281 5.65329C11.3787 5.80057 11.4308 5.97335 11.4309 6.15005ZM9.7909 14.5301V9.1501C9.7882 9.0556 9.8046 8.9615 9.8392 8.8736C9.8738 8.7857 9.9258 8.7057 9.9922 8.6385C10.0585 8.5712 10.1378 8.518 10.2252 8.4822C10.3126 8.4464 10.4064 8.4286 10.5008 8.43C10.594 8.4299 10.6863 8.4487 10.772 8.4853C10.8577 8.5218 10.9352 8.5753 10.9997 8.6426C11.0642 8.7099 11.1143 8.7895 11.1472 8.8767C11.1801 8.9639 11.1949 9.0569 11.1908 9.1501V14.5301C11.1908 14.622 11.1727 14.713 11.1376 14.7979C11.1024 14.8828 11.0508 14.96 10.9858 15.025C10.9208 15.09 10.8437 15.1415 10.7588 15.1767C10.6738 15.2119 10.5828 15.23 10.4909 15.23C10.399 15.23 10.3079 15.2119 10.223 15.1767C10.1381 15.1415 10.0609 15.09 9.9959 15.025C9.9309 14.96 9.8793 14.8828 9.8442 14.7979C9.809 14.713 9.7909 14.622 9.7909 14.5301Z" fill="white"/>
</svg>
