<svg width="11" height="14" viewBox="0 0 11 14" fill="none" xmlns="http://www.w3.org/2000/svg">
<path fill-rule="evenodd" clip-rule="evenodd" d="M7.50003 3.05621V6.48378C7.52283 7.59932 6.51573 8.52016 5.25003 8.54087C3.98433 8.52016 2.97713 7.59932 3.00003 6.48378V3.05621C2.97773 1.94102 3.98473 1.02075 5.25003 1C6.51533 1.02075 7.52233 1.94102 7.50003 3.05621Z" stroke="black" stroke-width="1.5" stroke-linecap="round" stroke-linejoin="round"/>
<path d="M1.21236 8.80298C0.886212 8.57797 0.414812 8.62856 0.159482 8.91606C-0.0958579 9.20347 -0.0384478 9.61894 0.287702 9.84404L1.21236 8.80298ZM10.2123 9.84404C10.5385 9.61894 10.5959 9.20347 10.3406 8.91606C10.0852 8.62856 9.61383 8.57797 9.28773 8.80298L10.2123 9.84404ZM6.00003 10.6949C6.00003 10.3298 5.66423 10.0339 5.25003 10.0339C4.83583 10.0339 4.50003 10.3298 4.50003 10.6949H6.00003ZM4.50003 13.339C4.50003 13.704 4.83583 14 5.25003 14C5.66423 14 6.00003 13.704 6.00003 13.339H4.50003ZM0.287702 9.84404C3.20243 11.8551 7.29763 11.8551 10.2123 9.84404L9.28773 8.80298C6.91613 10.4394 3.58393 10.4394 1.21236 8.80298L0.287702 9.84404ZM4.50003 10.6949V13.339H6.00003V10.6949H4.50003Z" fill="black"/>
</svg>
