<svg width="100" height="79" viewBox="0 0 100 79" fill="none" xmlns="http://www.w3.org/2000/svg">
<path d="M100 66.6417V79.1708H0V66.6875C5.81645 58.9144 13.3663 52.6056 22.0491 48.2627C30.732 43.9198 40.3083 41.6627 50.0167 41.6708C70.45 41.6708 88.6 51.4792 100 66.6417ZM66.675 16.6667C66.675 21.0869 64.9191 25.3262 61.7934 28.4518C58.6678 31.5774 54.4286 33.3333 50.0083 33.3333C45.5881 33.3333 41.3488 31.5774 38.2232 28.4518C35.0976 25.3262 33.3417 21.0869 33.3417 16.6667C33.3417 12.2464 35.0976 8.00716 38.2232 4.88155C41.3488 1.75595 45.5881 0 50.0083 0C54.4286 0 58.6678 1.75595 61.7934 4.88155C64.9191 8.00716 66.675 12.2464 66.675 16.6667Z" fill="#D1D1D1"/>
</svg>
